<?xml version="1.0" standalone="no"?>
<!DOCTYPE svg PUBLIC "-//W3C//DTD SVG 20010904//EN"
 "http://www.w3.org/TR/2001/REC-SVG-20010904/DTD/svg10.dtd">
<svg version="1.0" xmlns="http://www.w3.org/2000/svg"
 width="800" height="800" viewBox="0 0 800.000000 800.000000"
 preserveAspectRatio="xMidYMid meet">
<metadata>
Created by potrace 1.16, written by Peter Selinger 2001-2019
</metadata>
<defs>
<linearGradient id="ionixIconGradient" x1="0" y1="0" x2="1" y2="1">
<stop offset="0" stop-color="#22d3ee"/>
<stop offset="0.36" stop-color="#2563eb"/>
<stop offset="0.72" stop-color="#7c3aed"/>
<stop offset="1" stop-color="#c084fc"/>
</linearGradient>
</defs>
<g transform="translate(0.000000,800.000000) scale(0.100000,-0.100000)"
fill="url(#ionixIconGradient)" stroke="none">
<path d="M696 5853 c-4 -4 -19 -9 -34 -10 -53 -7 -118 -49 -197 -128 -61 -61
-90 -100 -123 -165 -23 -47 -42 -95 -42 -107 0 -13 -4 -23 -10 -23 -5 0 -10
-9 -10 -20 0 -11 -4 -20 -10 -20 -5 0 -10 -15 -10 -34 0 -19 -5 -38 -10 -41
-6 -3 -10 -22 -10 -41 0 -19 -4 -34 -10 -34 -6 0 -10 -30 -10 -69 0 -39 -5
-73 -10 -76 -14 -8 -14 -605 0 -605 6 0 10 -31 10 -74 0 -41 5 -78 10 -81 6
-3 10 -19 10 -35 0 -16 4 -31 9 -34 5 -3 11 -23 15 -43 13 -88 19 -113 27
-119 5 -3 9 -14 9 -24 0 -11 9 -35 20 -55 11 -20 20 -44 20 -55 0 -10 5 -22
10 -25 6 -3 10 -15 10 -26 0 -10 5 -19 10 -19 6 0 10 -9 10 -19 0 -20 40 -104
53 -109 4 -2 7 -12 7 -23 0 -10 4 -19 8 -19 5 0 20 -21 33 -47 13 -27 32 -57
41 -67 10 -11 18 -26 18 -33 0 -7 4 -13 9 -13 5 0 16 -15 24 -33 9 -18 27 -43
41 -56 14 -14 26 -29 26 -35 0 -6 18 -29 40 -50 22 -22 40 -45 40 -52 0 -6 13
-22 30 -35 16 -13 30 -30 30 -38 0 -8 3 -12 6 -9 3 3 54 -43 113 -103 60 -60
114 -109 120 -109 6 0 28 -18 48 -40 21 -22 42 -40 48 -40 6 0 29 -18 50 -40
21 -22 44 -40 50 -40 7 0 20 -9 30 -20 10 -11 25 -20 33 -20 8 0 22 -8 31 -18
9 -9 28 -23 44 -31 15 -8 27 -18 27 -23 0 -4 8 -8 18 -8 10 0 24 -9 32 -20 8
-11 22 -20 32 -20 10 0 18 -4 18 -10 0 -5 6 -10 14 -10 7 0 19 -7 26 -15 14
-17 67 -45 87 -45 7 0 13 -3 13 -7 0 -9 49 -33 67 -33 7 0 13 -3 13 -7 0 -9
49 -33 67 -33 7 0 13 -4 13 -10 0 -5 9 -10 20 -10 11 0 20 -4 20 -10 0 -5 9
-10 20 -10 11 0 20 -3 20 -7 0 -12 51 -33 77 -33 13 0 23 -4 23 -10 0 -5 9
-10 20 -10 11 0 20 -4 20 -10 0 -5 9 -10 20 -10 11 0 35 -9 55 -20 20 -11 47
-20 60 -20 14 0 25 -4 25 -10 0 -5 14 -10 30 -10 17 0 30 -4 30 -10 0 -5 14
-10 30 -10 17 0 30 -4 30 -10 0 -5 14 -10 30 -10 17 0 30 -4 30 -10 0 -5 18
-10 40 -10 22 0 40 -4 40 -10 0 -5 14 -10 30 -10 17 0 30 -4 30 -10 0 -5 23
-10 50 -10 28 0 50 -4 50 -10 0 -5 18 -10 40 -10 22 0 40 -4 40 -10 0 -5 23
-10 50 -10 28 0 50 -4 50 -10 0 -5 23 -10 50 -10 28 0 50 -4 50 -10 0 -6 30
-10 70 -10 40 0 70 -4 70 -10 0 -6 33 -10 80 -10 47 0 80 -4 80 -10 0 -6 47
-10 120 -10 73 0 120 -4 120 -10 0 -6 110 -10 310 -10 200 0 310 4 310 10 0 6
37 10 90 10 53 0 90 4 90 10 0 6 23 10 50 10 28 0 50 5 50 10 0 6 23 10 50 10
28 0 50 5 50 10 0 6 18 10 40 10 22 0 40 5 40 10 0 6 14 10 30 10 17 0 30 5
30 10 0 6 18 10 40 10 22 0 40 5 40 10 0 6 18 10 40 10 22 0 40 5 40 10 0 6
18 10 40 10 22 0 40 5 40 10 0 6 14 10 30 10 17 0 30 5 30 10 0 6 9 10 20 10
11 0 20 5 20 10 0 6 14 10 30 10 17 0 30 5 30 10 0 6 9 10 20 10 11 0 20 5 20
10 0 6 8 10 18 10 10 0 24 9 32 20 8 11 22 20 32 20 10 0 18 5 18 10 0 6 7 10
16 10 9 0 29 14 44 30 15 17 33 30 40 30 6 0 33 23 60 50 27 28 54 50 60 50
15 0 40 25 40 40 0 6 27 38 60 70 33 32 60 64 60 70 0 7 14 25 30 40 17 15 30
35 30 44 0 9 5 16 10 16 6 0 10 8 10 18 0 10 9 24 20 32 11 8 20 22 20 32 0
10 5 18 10 18 6 0 10 14 10 30 0 17 5 30 10 30 6 0 10 9 10 20 0 11 5 20 10
20 6 0 10 9 10 20 0 11 5 20 10 20 6 0 10 14 10 30 0 17 5 30 10 30 6 0 10 18
10 40 0 22 5 40 10 40 6 0 10 18 10 40 0 22 5 40 10 40 6 0 10 33 10 80 0 47
4 80 10 80 6 0 10 63 10 170 0 107 -4 170 -10 170 -6 0 -10 33 -10 80 0 47 -4
80 -10 80 -6 0 -10 30 -10 70 0 40 -4 70 -10 70 -5 0 -10 18 -10 40 0 22 -4
40 -10 40 -5 0 -10 18 -10 40 0 22 -4 40 -10 40 -5 0 -10 14 -10 30 0 17 -4
30 -10 30 -5 0 -10 14 -10 30 0 17 -4 30 -10 30 -5 0 -10 14 -10 30 0 17 -4
30 -10 30 -5 0 -10 9 -10 20 0 11 -4 20 -10 20 -5 0 -10 9 -10 20 0 11 -4 20
-10 20 -5 0 -10 13 -10 28 0 16 -8 34 -20 42 -11 8 -20 22 -20 32 0 10 -4 18
-10 18 -5 0 -10 9 -10 20 0 11 -4 20 -10 20 -5 0 -10 8 -10 18 0 10 -9 24 -20
32 -11 8 -20 21 -20 30 0 9 -9 22 -20 30 -11 8 -20 21 -20 28 0 8 -18 31 -40
51 l-40 36 50 -3 c28 -2 50 -8 50 -13 0 -5 18 -9 40 -9 22 0 40 -4 40 -10 0
-5 18 -10 40 -10 22 0 40 -4 40 -10 0 -5 14 -10 30 -10 17 0 30 -4 30 -10 0
-5 18 -10 40 -10 22 0 40 -4 40 -10 0 -5 14 -10 30 -10 17 0 30 -4 30 -10 0
-5 14 -10 30 -10 17 0 30 -4 30 -10 0 -5 9 -10 20 -10 11 0 20 -4 20 -10 0 -5
14 -10 30 -10 17 0 30 -4 30 -10 0 -5 9 -10 20 -10 11 0 20 -4 20 -10 0 -5 14
-10 30 -10 17 0 30 -4 30 -10 0 -5 9 -10 20 -10 11 0 20 -4 20 -10 0 -5 9 -10
20 -10 11 0 20 -4 20 -10 0 -5 9 -10 20 -10 11 0 20 -4 20 -10 0 -5 9 -10 20
-10 11 0 20 -4 20 -10 0 -5 9 -10 20 -10 11 0 20 -4 20 -10 0 -5 9 -10 20 -10
11 0 20 -4 20 -10 0 -5 9 -10 20 -10 11 0 20 -4 20 -10 0 -5 9 -10 20 -10 11
0 20 -4 20 -10 0 -5 8 -10 18 -10 10 0 24 -9 32 -20 8 -11 22 -20 32 -20 10 0
18 -4 18 -10 0 -5 7 -10 16 -10 9 0 29 -13 44 -30 15 -16 34 -30 42 -30 7 0
20 -9 28 -20 8 -11 21 -20 28 -20 8 0 27 -13 42 -30 15 -16 33 -30 39 -30 15
0 321 -306 321 -321 0 -6 14 -24 30 -39 17 -15 30 -34 30 -42 0 -7 9 -20 20
-28 11 -8 20 -22 20 -32 0 -10 5 -18 10 -18 6 0 10 -9 10 -20 0 -11 5 -20 10
-20 6 0 10 -9 10 -20 0 -11 5 -20 10 -20 6 0 10 -9 10 -20 0 -11 5 -20 10 -20
6 0 10 -9 10 -20 0 -11 5 -20 10 -20 6 0 10 -9 10 -20 0 -11 5 -20 10 -20 6 0
10 -13 10 -30 0 -16 5 -30 10 -30 6 0 10 -13 10 -30 0 -16 5 -30 10 -30 6 0
10 -22 10 -50 0 -27 5 -50 10 -50 6 0 10 -37 10 -90 0 -53 4 -90 10 -90 6 0
10 -18 10 -40 0 -22 -4 -40 -10 -40 -6 0 -10 -47 -10 -120 0 -73 -4 -120 -10
-120 -5 0 -10 -22 -10 -50 0 -27 -4 -50 -10 -50 -5 0 -10 -18 -10 -40 0 -22
-4 -40 -10 -40 -5 0 -10 -13 -10 -30 0 -16 -4 -30 -10 -30 -5 0 -10 -13 -10
-30 0 -16 -4 -30 -10 -30 -5 0 -10 -13 -10 -30 0 -16 -4 -30 -10 -30 -5 0 -10
-9 -10 -20 0 -11 -4 -20 -10 -20 -5 0 -10 -9 -10 -20 0 -11 -4 -20 -10 -20 -5
0 -10 -9 -10 -20 0 -11 -4 -20 -10 -20 -5 0 -10 -9 -10 -20 0 -11 -4 -20 -10
-20 -5 0 -10 -9 -10 -20 0 -11 -4 -20 -10 -20 -5 0 -10 -8 -10 -18 0 -10 -9
-24 -20 -32 -11 -8 -20 -21 -20 -28 0 -8 -14 -27 -30 -42 -17 -15 -30 -35 -30
-44 0 -9 -4 -16 -10 -16 -5 0 -10 -9 -10 -20 0 -16 7 -20 30 -20 17 0 30 -4
30 -10 0 -6 30 -10 70 -10 40 0 70 -4 70 -10 0 -6 33 -10 80 -10 47 0 80 4 80
10 0 6 18 10 40 10 22 0 40 5 40 10 0 6 9 10 20 10 11 0 20 5 20 10 0 6 7 10
15 10 20 0 185 165 185 185 0 8 5 15 10 15 6 0 10 9 10 20 0 11 5 20 10 20 6
0 10 9 10 20 0 11 5 20 10 20 6 0 10 9 10 20 0 11 5 20 10 20 6 0 10 14 10 30
0 17 5 30 10 30 6 0 10 9 10 20 0 11 5 20 10 20 6 0 10 18 10 40 0 22 5 40 10
40 6 0 10 18 10 40 0 22 5 40 10 40 6 0 10 30 10 70 0 40 4 70 10 70 6 0 10
107 10 300 0 193 -4 300 -10 300 -6 0 -10 30 -10 70 0 40 -4 70 -10 70 -5 0
-10 18 -10 40 0 22 -4 40 -10 40 -5 0 -10 18 -10 40 0 22 -4 40 -10 40 -5 0
-10 18 -10 40 0 22 -4 40 -10 40 -5 0 -10 14 -10 30 0 17 -4 30 -10 30 -5 0
-10 9 -10 20 0 11 -4 20 -10 20 -5 0 -10 14 -10 30 0 17 -4 30 -10 30 -5 0
-10 9 -10 20 0 11 -4 20 -10 20 -5 0 -10 14 -10 30 0 17 -4 30 -10 30 -5 0
-10 9 -10 20 0 11 -4 20 -10 20 -5 0 -10 9 -10 20 0 11 -4 20 -10 20 -5 0 -10
8 -10 18 0 10 -9 24 -20 32 -11 8 -20 22 -20 32 0 10 -4 18 -10 18 -5 0 -10 8
-10 18 0 10 -9 24 -20 32 -11 8 -20 21 -20 30 0 9 -9 22 -20 30 -11 8 -20 21
-20 28 0 8 -14 27 -30 42 -17 15 -30 33 -30 40 0 6 -18 29 -40 50 -22 21 -40
43 -40 49 0 14 -287 301 -301 301 -6 0 -28 18 -49 40 -21 22 -44 40 -50 40 -6
0 -29 18 -50 40 -21 22 -45 40 -52 40 -7 0 -20 9 -28 20 -8 11 -21 20 -30 20
-9 0 -22 9 -30 20 -8 11 -21 20 -30 20 -9 0 -22 9 -30 20 -8 11 -21 20 -30 20
-9 0 -22 9 -30 20 -8 11 -22 20 -32 20 -10 0 -18 5 -18 10 0 6 -8 10 -18 10
-10 0 -24 9 -32 20 -8 11 -22 20 -32 20 -10 0 -18 5 -18 10 0 6 -9 10 -20 10
-11 0 -20 5 -20 10 0 6 -9 10 -20 10 -11 0 -20 5 -20 10 0 6 -9 10 -20 10 -11
0 -20 5 -20 10 0 6 -9 10 -20 10 -11 0 -20 5 -20 10 0 6 -9 10 -20 10 -11 0
-20 5 -20 10 0 6 -9 10 -20 10 -11 0 -20 5 -20 10 0 6 -9 10 -20 10 -11 0 -20
5 -20 10 0 6 -9 10 -20 10 -11 0 -20 5 -20 10 0 6 -13 10 -30 10 -16 0 -30 5
-30 10 0 6 -9 10 -20 10 -11 0 -20 5 -20 10 0 6 -13 10 -30 10 -16 0 -30 5
-30 10 0 6 -9 10 -20 10 -11 0 -20 5 -20 10 0 6 -13 10 -30 10 -16 0 -30 5
-30 10 0 6 -13 10 -30 10 -16 0 -30 5 -30 10 0 6 -13 10 -30 10 -16 0 -30 5
-30 10 0 6 -13 10 -30 10 -16 0 -30 5 -30 10 0 6 -18 10 -40 10 -22 0 -40 5
-40 10 0 6 -13 10 -30 10 -16 0 -30 5 -30 10 0 6 -22 10 -50 10 -27 0 -50 5
-50 10 0 6 -18 10 -40 10 -22 0 -40 5 -40 10 0 6 -22 10 -50 10 -27 0 -50 5
-50 10 0 6 -22 10 -50 10 -27 0 -50 5 -50 10 0 6 -30 10 -70 10 -40 0 -70 4
-70 10 0 6 -33 10 -80 10 -47 0 -80 4 -80 10 0 6 -47 10 -120 10 -73 0 -120 4
-120 10 0 6 -110 10 -310 10 -200 0 -310 -4 -310 -10 0 -6 -36 -10 -89 -10
-50 0 -93 -4 -96 -10 -3 -5 -26 -10 -51 -10 -24 0 -44 -4 -44 -10 0 -5 -22
-10 -50 -10 -27 0 -50 -4 -50 -10 0 -5 -18 -10 -40 -10 -22 0 -40 -4 -40 -9 0
-5 -17 -12 -37 -15 -91 -16 -103 -19 -109 -27 -3 -5 -20 -9 -39 -9 -19 0 -37
-4 -40 -10 -3 -5 -22 -10 -41 -10 -19 0 -34 -4 -34 -10 0 -5 -13 -10 -30 -10
-16 0 -30 -4 -30 -10 0 -5 -9 -10 -19 -10 -11 0 -23 -4 -26 -10 -3 -5 -17 -10
-31 -10 -13 0 -24 -4 -24 -10 0 -5 -9 -10 -20 -10 -11 0 -20 -4 -20 -10 0 -5
-9 -10 -20 -10 -11 0 -20 -4 -20 -8 0 -5 -21 -20 -47 -33 -27 -13 -61 -36 -78
-51 -16 -16 -34 -28 -39 -28 -5 0 -30 -22 -56 -49 -26 -27 -55 -51 -66 -53
-10 -2 -24 -15 -31 -29 -7 -14 -37 -51 -68 -82 -30 -32 -55 -61 -55 -66 0 -5
-13 -22 -30 -38 -16 -15 -30 -36 -30 -45 0 -10 -4 -18 -10 -18 -5 0 -10 -6
-10 -13 0 -7 -8 -22 -18 -33 -24 -28 -42 -61 -42 -78 0 -8 -13 -40 -30 -71
-17 -31 -30 -65 -30 -75 0 -11 -4 -22 -10 -25 -6 -3 -10 -21 -10 -40 0 -19 -4
-37 -10 -40 -5 -3 -10 -24 -10 -46 0 -21 -4 -39 -10 -39 -6 0 -10 -33 -10 -80
0 -47 -4 -80 -10 -80 -14 0 -14 -337 0 -345 6 -3 10 -40 10 -81 0 -41 4 -74 9
-74 4 0 9 -30 10 -67 1 -38 6 -69 11 -71 6 -2 10 -21 10 -43 0 -21 5 -39 10
-39 6 0 10 -18 10 -40 0 -22 5 -40 10 -40 6 0 10 -13 10 -30 0 -16 5 -30 10
-30 6 0 10 -13 10 -30 0 -16 5 -30 10 -30 6 0 10 -13 10 -30 0 -16 5 -30 11
-30 6 0 9 -9 6 -20 -3 -13 0 -20 9 -20 8 0 14 -9 14 -19 0 -11 5 -23 10 -26 6
-3 10 -16 10 -28 0 -13 9 -29 20 -37 11 -8 20 -22 20 -32 0 -10 5 -18 10 -18
6 0 10 -9 10 -20 0 -11 5 -20 10 -20 6 0 10 -8 10 -18 0 -10 9 -24 20 -32 11
-8 20 -21 20 -30 0 -9 9 -22 20 -30 11 -8 20 -21 20 -28 0 -8 17 -30 37 -48
l37 -34 -47 0 c-26 0 -47 5 -47 10 0 6 -18 10 -40 10 -22 0 -40 5 -40 10 0 6
-18 10 -40 10 -22 0 -40 5 -40 10 0 6 -13 10 -30 10 -16 0 -30 5 -30 10 0 6
-18 10 -40 10 -22 0 -40 5 -40 10 0 6 -13 10 -30 10 -16 0 -30 5 -30 10 0 6
-9 10 -20 10 -11 0 -35 9 -55 20 -20 11 -47 20 -60 20 -14 0 -25 5 -25 10 0 6
-9 10 -20 10 -11 0 -20 5 -20 10 0 6 -9 10 -20 10 -11 0 -35 9 -55 20 -20 11
-42 20 -49 20 -8 0 -16 3 -18 8 -4 10 -128 72 -144 72 -7 0 -14 4 -16 8 -1 4
-29 20 -61 36 -31 15 -63 33 -70 40 -6 6 -29 20 -50 29 -20 10 -47 28 -60 40
-12 12 -34 28 -49 36 -16 8 -28 18 -28 23 0 4 -6 8 -14 8 -7 0 -27 14 -44 30
-18 17 -36 30 -42 30 -12 0 -320 312 -320 325 0 5 -13 23 -30 38 -16 16 -30
35 -30 42 0 7 -6 18 -14 24 -8 7 -41 65 -73 129 -31 64 -61 119 -65 120 -4 2
-8 17 -8 32 0 16 -4 32 -10 35 -5 3 -10 17 -10 30 0 13 -4 27 -10 30 -5 3 -10
26 -10 50 0 24 -4 47 -10 50 -5 3 -10 44 -10 90 0 46 -4 87 -10 90 -5 3 -10
22 -10 41 0 19 5 34 10 34 6 0 10 44 10 113 0 62 4 117 9 122 5 6 12 30 15 55
14 100 18 120 27 126 5 3 9 18 9 35 0 16 5 29 10 29 6 0 10 11 10 25 0 14 5
25 10 25 6 0 10 11 10 23 0 13 23 68 50 122 28 54 50 104 50 112 0 7 5 13 10
13 6 0 10 6 10 13 0 7 9 23 20 35 11 12 20 25 20 31 0 5 14 22 30 38 17 15 30
36 30 45 0 10 5 18 10 18 6 0 10 9 10 20 0 15 -7 20 -24 20 -14 0 -28 5 -31
10 -3 6 -35 10 -70 10 -35 0 -67 5 -70 10 -7 11 -158 14 -169 3z m3244 -823
c0 -6 30 -10 70 -10 40 0 70 -4 70 -10 0 -6 27 -10 60 -10 33 0 60 -4 60 -10
0 -5 14 -10 30 -10 17 0 30 -4 30 -10 0 -5 18 -10 40 -10 22 0 40 -4 40 -10 0
-5 14 -10 30 -10 17 0 30 -4 30 -10 0 -5 14 -10 30 -10 17 0 30 -4 30 -10 0
-5 9 -10 20 -10 11 0 20 -4 20 -10 0 -5 9 -10 20 -10 11 0 20 -4 20 -10 0 -5
9 -10 20 -10 11 0 20 -4 20 -10 0 -5 9 -10 20 -10 11 0 20 -4 20 -10 0 -5 9
-10 20 -10 11 0 20 -4 20 -10 0 -5 9 -10 20 -10 11 0 20 -4 20 -10 0 -5 8 -10
18 -10 10 0 24 -9 32 -20 8 -11 21 -20 30 -20 9 0 22 -9 30 -20 8 -11 20 -20
28 -20 17 0 82 -65 82 -82 0 -8 9 -20 20 -28 11 -8 20 -21 20 -30 0 -9 9 -22
20 -30 11 -8 20 -22 20 -32 0 -10 5 -18 10 -18 6 0 10 -9 10 -20 0 -11 5 -20
10 -20 6 0 10 -9 10 -20 0 -11 5 -20 10 -20 6 0 10 -9 10 -20 0 -11 5 -20 10
-20 6 0 10 -13 10 -30 0 -16 5 -30 10 -30 6 0 10 -13 10 -30 0 -16 5 -30 10
-30 6 0 10 -18 10 -40 0 -22 5 -40 10 -40 6 0 10 -18 10 -40 0 -22 5 -40 10
-40 6 0 10 -43 10 -110 0 -67 4 -110 10 -110 6 0 10 -18 10 -40 0 -22 -4 -40
-10 -40 -6 0 -10 -33 -10 -80 0 -47 -4 -80 -10 -80 -5 0 -10 -18 -10 -40 0
-22 -4 -40 -10 -40 -5 0 -10 -9 -10 -20 0 -11 -4 -20 -10 -20 -5 0 -10 -13
-10 -30 0 -16 -4 -30 -10 -30 -5 0 -10 -8 -10 -18 0 -10 -9 -24 -20 -32 -11
-8 -20 -21 -20 -30 0 -9 -9 -22 -20 -30 -11 -8 -20 -20 -20 -27 0 -17 -126
-143 -143 -143 -7 0 -19 -9 -27 -20 -8 -11 -21 -20 -30 -20 -9 0 -22 -9 -30
-20 -8 -11 -22 -20 -32 -20 -10 0 -18 -4 -18 -10 0 -5 -9 -10 -20 -10 -11 0
-20 -4 -20 -10 0 -5 -13 -10 -29 -10 -17 0 -33 -4 -36 -10 -3 -5 -17 -10 -31
-10 -13 0 -24 -4 -24 -10 0 -5 -13 -10 -30 -10 -16 0 -30 -4 -30 -10 0 -6 -27
-10 -60 -10 -33 0 -60 -4 -60 -10 0 -6 -60 -10 -160 -10 -100 0 -160 4 -160
10 0 6 -30 10 -70 10 -40 0 -70 4 -70 10 0 6 -27 10 -60 10 -33 0 -60 4 -60
10 0 6 -13 10 -30 10 -16 0 -30 5 -30 10 0 6 -18 10 -40 10 -22 0 -40 5 -40
10 0 6 -13 10 -30 10 -16 0 -30 5 -30 10 0 6 -13 10 -30 10 -16 0 -30 5 -30
10 0 6 -9 10 -20 10 -11 0 -20 5 -20 10 0 6 -9 10 -20 10 -11 0 -20 5 -20 10
0 6 -9 10 -20 10 -11 0 -20 5 -20 10 0 6 -9 10 -20 10 -11 0 -20 5 -20 10 0 6
-9 10 -20 10 -11 0 -20 5 -20 10 0 6 -9 10 -20 10 -11 0 -20 5 -20 10 0 6 -8
10 -18 10 -10 0 -24 9 -32 20 -8 11 -21 20 -30 20 -9 0 -22 9 -30 20 -8 11
-20 20 -28 20 -21 0 -82 68 -82 91 0 12 -3 20 -6 16 -9 -8 -34 18 -34 35 0 8
-9 20 -20 28 -11 8 -20 22 -20 32 0 10 -4 18 -10 18 -5 0 -10 9 -10 20 0 11
-4 20 -10 20 -5 0 -10 9 -10 20 0 11 -4 20 -10 20 -5 0 -10 9 -10 20 0 11 -4
20 -10 20 -5 0 -10 14 -10 30 0 17 -4 30 -10 30 -5 0 -10 14 -10 30 0 17 -4
30 -10 30 -5 0 -10 18 -10 40 0 22 -4 40 -10 40 -5 0 -10 18 -10 40 0 22 -4
40 -10 40 -6 0 -10 43 -10 109 0 63 -4 112 -10 116 -5 3 -10 22 -10 41 0 19 5
34 10 34 6 0 10 33 10 80 0 47 4 80 10 80 6 0 10 15 10 34 0 19 5 38 10 41 6
3 10 15 10 26 0 10 5 19 10 19 6 0 10 14 10 30 0 17 5 30 10 30 6 0 10 6 10
13 0 7 9 23 20 35 11 12 20 26 20 32 0 15 26 41 34 33 3 -4 6 3 6 15 0 23 121
152 142 152 8 0 20 9 28 20 8 11 20 20 28 20 7 0 22 9 34 20 12 11 28 20 35
20 7 0 13 5 13 10 0 6 9 10 20 10 11 0 20 5 20 10 0 6 14 10 30 10 17 0 30 5
30 10 0 6 14 10 30 10 17 0 30 5 30 10 0 6 14 10 30 10 17 0 30 5 30 10 0 6
27 10 60 10 33 0 60 4 60 10 0 6 60 10 160 10 100 0 160 -4 160 -10z"/>
</g>
</svg>
